<svg width="50" height="24" viewBox="0 0 50 24" fill="none" xmlns="http://www.w3.org/2000/svg">
                    <path fill-rule="evenodd" clip-rule="evenodd" d="M16.7014 12.2868C17.3557 11.8506 18.7371 10.1784 18.8098 10.033C18.8825 9.88763 19.1733 9.59681 18.8825 9.306C18.5917 9.01519 18.3009 9.16059 17.9374 9.3787C17.5738 9.52411 16.0471 10.7601 15.4654 11.1963C14.8838 11.6325 13.4298 12.9412 13.4298 12.9412C13.4298 12.9412 12.63 13.5955 12.9208 13.959C13.2117 14.3225 13.5025 14.1771 13.866 14.0317C14.3022 13.8863 16.0471 12.723 16.7014 12.2868ZM14.8111 0H14.4476C12.7027 0 8.48595 0.290813 7.54081 0.363516C6.52296 0.436219 3.25132 1.01784 2.6697 1.16325C2.08807 1.30866 2.37889 1.67217 2.37889 1.67217C2.37889 1.67217 2.96051 2.3265 3.25132 2.54461C3.54214 2.76272 3.97835 3.41705 4.55998 3.12623C5.21431 2.83542 8.41325 2.54461 9.43109 2.3992C10.5216 2.2538 11.3941 2.3992 11.3941 2.3992C11.3941 2.3992 8.63135 6.03436 8.19514 6.68869C7.75892 7.27031 5.35971 10.542 4.85079 11.269C4.41457 11.996 3.25132 13.8136 2.7424 14.686C2.30618 15.5585 3.10592 15.4858 3.10592 15.4858C3.10592 15.4858 4.9962 15.5585 5.43242 15.5585C5.79593 15.5585 5.86864 15.2677 5.94134 15.1223C6.01404 14.9768 6.15945 14.6133 6.52296 14.0317C6.88648 13.4501 7.68621 12.1414 8.55865 10.6874C9.43109 9.2333 10.5216 7.85194 11.3214 6.76139C12.1211 5.67084 13.0662 4.43489 13.2844 4.14408C13.5025 3.85327 14.3749 2.69002 14.593 2.3992C14.8111 2.10839 14.8838 2.10839 15.1746 2.10839C15.5381 2.10839 17.7919 2.2538 18.7371 2.3265C19.7549 2.3992 21.1363 2.47191 22.0087 2.54461C22.8812 2.61731 22.5904 2.18109 22.5904 2.18109C22.5904 2.18109 22.6631 1.59947 22.3722 1.09055C22.0814 0.508922 21.8633 0.581625 21.8633 0.581625C20.7001 0.218109 16.1198 0 14.8111 0ZM48.9816 20.5023C49.1997 20.6477 49.7086 20.7931 49.6359 21.2293C49.6359 21.2293 49.1997 22.2472 48.9816 22.3199C48.7635 22.3926 48.4 22.3926 47.6729 22.1018C46.9459 21.8109 43.3834 20.9385 42.4383 20.7204C41.5659 20.575 39.4575 20.2115 39.4575 20.2115C39.4575 20.2115 39.1667 20.0661 38.7304 20.7931C38.2942 21.4474 36.9129 23.4831 36.9129 23.4831C36.9129 23.4831 36.8402 23.7739 36.5494 23.7739C36.2585 23.7739 35.168 23.7012 34.7318 23.4831C34.2956 23.265 34.1502 23.265 34.441 22.8288C34.7318 22.3926 35.6769 20.4296 36.1131 20.0661C36.5494 19.7025 35.895 19.7752 35.6769 19.7025C35.4588 19.7025 31.242 19.4117 30.0061 19.4844C28.7701 19.4844 24.4079 19.4844 22.8085 19.6298C21.209 19.7753 15.4654 20.2842 14.0114 20.5023C12.4846 20.7204 6.37756 21.5928 5.57782 21.8109C4.77809 21.9563 3.10592 22.2472 3.10592 22.2472C3.10592 22.2472 2.30618 22.4653 1.43375 22.1018C0.634011 21.7382 -0.674647 21.2293 0.4159 20.8658C1.50645 20.5023 6.95918 19.4117 8.63135 19.1936C10.3035 18.9755 15.6109 18.1758 17.7919 18.1031C19.973 17.9577 26.0074 17.6669 28.2612 17.6669C30.515 17.6669 33.5685 17.8123 34.9499 17.9577C36.2585 18.0304 37.131 18.1031 37.4218 18.1758C37.7126 18.2485 37.7126 18.0304 38.0034 17.7396C38.2942 17.4488 39.094 16.3582 39.094 16.3582C39.094 16.3582 39.3848 15.9947 38.8032 16.2855C38.2215 16.649 37.4218 16.649 36.9856 16.2128C36.5494 15.7766 36.4039 15.4858 36.1858 15.5585C35.9677 15.6312 35.168 16.0674 34.7318 16.2128C34.2956 16.3582 32.478 16.7944 31.3874 15.9947C30.2969 15.2677 30.2242 14.9041 30.0788 14.6133C29.9334 14.2498 29.8607 14.2498 29.4972 14.4679C29.1336 14.7587 27.8977 15.3404 27.3888 15.5585C26.9525 15.7766 26.589 15.922 25.862 15.922C25.135 15.8493 24.3352 15.6312 23.9717 15.0495C23.6082 14.4679 23.6082 14.0317 23.2447 14.3225C22.8812 14.6133 20.8455 15.7766 19.7549 16.0674C18.519 16.2128 18.2282 16.3582 17.6465 16.2128C16.9922 16.0674 16.3379 15.8493 16.1198 15.4858C15.9017 15.1223 15.829 15.0495 15.5381 15.2677C15.2473 15.4858 14.4476 16.0674 13.866 15.9947C13.2844 15.922 11.7576 15.5585 10.8852 14.0317C10.0854 12.5049 10.667 11.8506 11.3941 11.1236C12.1211 10.3238 13.5025 9.2333 13.5025 9.2333C13.5025 9.2333 15.1746 8.07005 15.6836 7.77923C16.2652 7.48842 17.1376 6.9795 17.7192 6.9795C18.3009 6.9795 19.1006 6.9795 19.9003 7.63383C20.7001 8.28816 21.1363 8.94248 21.2817 9.2333C21.3544 9.45141 21.7179 10.3965 21.1363 11.0509C20.5547 11.7052 18.9552 13.232 18.9552 13.232C18.9552 13.232 18.3009 13.5955 18.5917 14.1044C18.8825 14.5406 19.973 13.8136 20.2639 13.5228C20.6274 13.3047 22.5177 11.6325 23.0993 11.1236C23.6809 10.542 27.3161 6.9795 27.6796 6.68869C27.9704 6.32517 31.0239 3.34434 31.5328 3.05353C31.9691 2.76272 32.1145 2.54461 32.9869 2.69002C33.7866 2.83542 34.2956 3.12623 34.2956 3.12623C34.2956 3.12623 35.168 3.48975 34.441 3.99867C33.7866 4.5803 31.4601 6.47058 30.8785 7.0522C30.2969 7.63383 28.6247 9.306 28.1158 9.88763C27.5342 10.4693 26.0801 12.2868 25.862 12.6503C25.6439 13.0139 25.4985 13.3774 25.862 13.6682C26.2255 13.959 26.8798 13.6682 27.5342 13.0866C28.1885 12.5049 30.2242 10.8328 30.8785 10.1057C31.5328 9.3787 35.3861 5.81625 35.7496 5.52544C36.1131 5.23463 37.858 3.78056 37.858 3.78056C37.858 3.78056 38.0761 3.48975 38.585 3.48975C39.094 3.48975 39.6029 3.56245 39.8937 3.70786C40.1845 3.85327 40.7661 4.14408 40.7661 4.14408C40.7661 4.14408 41.1297 4.28948 40.548 4.7257C39.9664 5.16192 36.7675 7.63383 35.895 8.57897C35.0953 9.52411 33.3504 11.4144 32.6961 12.2141C32.0418 13.0866 31.6055 13.5228 32.1145 14.0317C32.6234 14.6133 33.205 14.4679 33.4958 14.3952C33.7866 14.3225 34.8045 13.5955 35.4588 12.8685C36.1858 12.1414 38.3669 9.81492 38.6577 9.52411C38.8759 9.2333 39.7483 8.43356 39.7483 8.43356C39.7483 8.43356 39.8937 8.07005 40.4026 8.07005C40.9115 8.07005 41.1297 8.14275 41.6386 8.21545C42.0748 8.36086 43.0926 8.50627 42.5837 9.08789C42.0021 9.66952 40.6207 11.0509 40.3299 11.4144C40.0391 11.7779 38.8759 13.0866 38.6577 13.4501C38.4396 13.8136 38.1488 14.2498 38.4396 14.4679C38.7304 14.686 39.5302 14.3952 40.2572 13.959C40.9842 13.5955 42.1475 12.8685 43.0926 11.996C44.0378 11.1236 45.5645 9.74222 45.5645 9.74222C45.5645 9.74222 45.7827 9.16059 46.9459 9.3787C48.0365 9.59681 48.3273 9.74222 48.3273 9.74222C48.3273 9.74222 49.1997 9.96033 48.6181 10.4693C48.0365 10.9782 46.1462 12.6503 45.4191 13.3774C44.6921 14.0317 42.4383 16.3582 42.0748 16.7944C41.7113 17.2306 40.6207 18.2485 41.0569 18.3212C41.4932 18.3939 44.8375 19.0482 45.5645 19.2663C46.2189 19.4844 48.7635 20.4296 48.9816 20.5023Z" fill="#3465FF"/>
                    </svg>